HIERARCHY
ROOT hip
{
  OFFSET 0 0 0
  CHANNELS 6 Xposition Yposition Zposition Zrotation Yrotation Xrotation
  JOINT abdomen
  {
    OFFSET 0 20.6881 -0.73152
    CHANNELS 3 Zrotation Xrotation Yrotation
    JOINT chest
    {
      OFFSET 0 11.7043 -0.48768
      CHANNELS 3 Zrotation Xrotation Yrotation
      JOINT neck
      {
        OFFSET 0 22.1894 -2.19456
        CHANNELS 3 Zrotation Xrotation Yrotation
        JOINT head
        {
          OFFSET -0.24384 7.07133 1.2192
          CHANNELS 3 Zrotation Xrotation Yrotation
          JOINT leftEye
          {
            OFFSET 4.14528 8.04674 8.04672
            CHANNELS 3 Zrotation Xrotation Yrotation
            End Site
            {
              OFFSET 1 0 0
            }
          }
          JOINT rightEye
          {
            OFFSET -3.6576 8.04674 8.04672
            CHANNELS 3 Zrotation Xrotation Yrotation
            End Site
            {
              OFFSET 1 0 0
            }
          }
        }
      }
      JOINT rCollar
      {
        OFFSET -2.68224 19.2634 -4.8768
        CHANNELS 3 Zrotation Xrotation Yrotation
        JOINT rShldr
        {
          OFFSET -8.77824 -1.95073 1.46304
          CHANNELS 3 Zrotation Xrotation Yrotation
          JOINT rForeArm
          {
            OFFSET -28.1742 -1.7115 0.48768
            CHANNELS 3 Zrotation Xrotation Yrotation
            JOINT rHand
            {
              OFFSET -22.5879 0.773209 7.07136
              CHANNELS 3 Zrotation Xrotation Yrotation
              JOINT rThumb1
              {
                OFFSET -1.2192 -0.487915 3.41376
                CHANNELS 3 Zrotation Xrotation Yrotation
                JOINT rThumb2
                {
                  OFFSET -3.37035 -0.52449 3.41376
                  CHANNELS 3 Zrotation Xrotation Yrotation
                  End Site
                  {
                    OFFSET -1.78271 -1.18214 1.43049
                  }
                }
              }
              JOINT rIndex1
              {
                OFFSET -7.75947 0.938293 5.60832
                CHANNELS 3 Zrotation Xrotation Yrotation
                JOINT rIndex2
                {
                  OFFSET -2.54057 -0.884171 1.56538
                  CHANNELS 3 Zrotation Xrotation Yrotation
                  End Site
                  {
                    OFFSET -1.62519 -0.234802 1.16502
                  }
                }
              }
              JOINT rMid1
              {
                OFFSET -8.24714 1.18213 3.41376
                CHANNELS 3 Zrotation Xrotation Yrotation
                JOINT rMid2
                {
                  OFFSET -3.10165 -0.590103 1.0647
                  CHANNELS 3 Zrotation Xrotation Yrotation
                  End Site
                  {
                    OFFSET -2.48547 -0.328903 0.83742
                  }
                }
              }
              JOINT rRing1
              {
                OFFSET -8.82822 0.546677 1.51678
                CHANNELS 3 Zrotation Xrotation Yrotation
                JOINT rRing2
                {
                  OFFSET -2.60934 -0.819778 -0.0198488
                  CHANNELS 3 Zrotation Xrotation Yrotation
                  End Site
                  {
                    OFFSET -2.33842 -0.294052 0.168128
                  }
                }
              }
              JOINT rPinky1
              {
                OFFSET -8.27202 -0.0477905 -0.4584
                CHANNELS 3 Zrotation Xrotation Yrotation
                JOINT rPinky2
                {
                  OFFSET -1.82734 -0.647385 -0.700984
                  CHANNELS 3 Zrotation Xrotation Yrotation
                  End Site
                  {
                    OFFSET -1.69225 -0.51767 -0.607171
                  }
                }
              }
            }
          }
        }
      }
      JOINT lCollar
      {
        OFFSET 2.68224 19.2634 -4.8768
        CHANNELS 3 Zrotation Xrotation Yrotation
        JOINT lShldr
        {
          OFFSET 8.77824 -1.95073 1.46304
          CHANNELS 3 Zrotation Xrotation Yrotation
          JOINT lForeArm
          {
            OFFSET 28.1742 -1.7115 0.48768
            CHANNELS 3 Zrotation Xrotation Yrotation
            JOINT lHand
            {
              OFFSET 22.5879 0.773209 7.07136
              CHANNELS 3 Zrotation Xrotation Yrotation
              JOINT lThumb1
              {
                OFFSET 1.2192 -0.487915 3.41376
                CHANNELS 3 Zrotation Xrotation Yrotation
                JOINT lThumb2
                {
                  OFFSET 3.37035 -0.52449 3.41376
                  CHANNELS 3 Zrotation Xrotation Yrotation
                  End Site
                  {
                    OFFSET 1.78271 -1.18214 1.43049
                  }
                }
              }
              JOINT lIndex1
              {
                OFFSET 7.75947 0.938293 5.60832
                CHANNELS 3 Zrotation Xrotation Yrotation
                JOINT lIndex2
                {
                  OFFSET 2.54057 -0.884171 1.56538
                  CHANNELS 3 Zrotation Xrotation Yrotation
                  End Site
                  {
                    OFFSET 1.62519 -0.234802 1.16502
                  }
                }
              }
              JOINT lMid1
              {
                OFFSET 8.24714 1.18213 3.41376
                CHANNELS 3 Zrotation Xrotation Yrotation
                JOINT lMid2
                {
                  OFFSET 3.10165 -0.590103 1.0647
                  CHANNELS 3 Zrotation Xrotation Yrotation
                  End Site
                  {
                    OFFSET 2.48547 -0.328903 0.83742
                  }
                }
              }
              JOINT lRing1
              {
                OFFSET 8.82822 0.546677 1.51678
                CHANNELS 3 Zrotation Xrotation Yrotation
                JOINT lRing2
                {
                  OFFSET 2.60934 -0.819778 -0.0198488
                  CHANNELS 3 Zrotation Xrotation Yrotation
                  End Site
                  {
                    OFFSET 2.33842 -0.294052 0.168128
                  }
                }
              }
              JOINT lPinky1
              {
                OFFSET 8.27202 -0.0477905 -0.4584
                CHANNELS 3 Zrotation Xrotation Yrotation
                JOINT lPinky2
                {
                  OFFSET 1.82734 -0.647385 -0.700984
                  CHANNELS 3 Zrotation Xrotation Yrotation
                  End Site
                  {
                    OFFSET 1.69225 -0.51767 -0.607171
                  }
                }
              }
            }
          }
        }
      }
    }
  }
  JOINT rButtock
  {
    OFFSET -8.77824 4.35084 1.2192
    CHANNELS 3 Zrotation Xrotation Yrotation
    JOINT rThigh
    {
      OFFSET 0 -1.70687 -2.19456
      CHANNELS 3 Zrotation Xrotation Yrotation
      JOINT rShin
      {
        OFFSET 0 -36.8199 0.73152
        CHANNELS 3 Zrotation Xrotation Yrotation
        JOINT rFoot
        {
          OFFSET 0.73152 -45.1104 -5.12064
          CHANNELS 3 Zrotation Xrotation Yrotation
          End Site
          {
            OFFSET -1.1221 -3.69964 12.103
          }
        }
      }
    }
  }
  JOINT lButtock
  {
    OFFSET 8.77824 4.35084 1.2192
    CHANNELS 3 Zrotation Xrotation Yrotation
    JOINT lThigh
    {
      OFFSET 0 -1.70687 -2.19456
      CHANNELS 3 Zrotation Xrotation Yrotation
      JOINT lShin
      {
        OFFSET 0 -36.8199 0.73152
        CHANNELS 3 Zrotation Xrotation Yrotation
        JOINT lFoot
        {
          OFFSET -0.73152 -45.1104 -5.12064
          CHANNELS 3 Zrotation Xrotation Yrotation
          End Site
          {
            OFFSET 1.1221 -3.69964 12.103
          }
        }
      }
    }
  }
}
MOTION
Frames:	7
Frame Time:	0.00833333
8.37139 85.3239 6.84693 0.0 0.0 0.0 1.12931 -0.00396608 0.031026 0.311259 -0.00299212 0.053919 1.17592e-14 0.0 4.34841e-16 3.57999e-14 3.18055e-15 1.36354e-15 -0.0 0.0 0.0 -0.0 0.0 0.0 6.21089e-15 -9.70628e-19 3.97569e-16 1.24445e-13 1.42876e-16 5.96354e-15 2.1347e-12 -6.39292e-13 8.5875e-14 2.43809e-11 6.34893e-13 9.35083e-13 5.75128e-11 -1.05798e-14 2.21685e-12 9.9314e-11 -1.90833e-14 3.827e-12 5.75168e-11 -1.15295e-14 2.2073e-12 7.73091 5.47488 0.417314 5.75121e-11 -1.08338e-14 2.22321e-12 2.90554 0.965183 0.102902 5.7519e-11 -1.09332e-14 2.21844e-12 10.2786 0.731801 0.0259123 5.75066e-11 -6.75868e-15 2.22321e-12 2.22167 -0.733487 -0.20892 6.01476e-15 1.94126e-19 0.0 1.22519e-13 1.67725e-16 4.57205e-15 2.1269e-12 6.41677e-13 5.40694e-14 2.43852e-11 -6.39366e-13 9.82791e-13 5.75143e-11 5.18949e-15 2.21685e-12 9.93426e-11 9.54166e-15 3.83336e-12 5.7512e-11 4.37326e-15 2.22639e-12 -7.73091 5.47488 -0.417314 5.75154e-11 4.87022e-15 2.22003e-12 -2.90554 0.965183 -0.102902 5.75134e-11 4.87022e-15 2.21685e-12 -10.2786 0.731801 -0.0259123 5.75191e-11 5.56597e-15 2.2073e-12 -2.22167 -0.733487 0.20892 -2.03217e-16 0.0 -3.88251e-19 1.38142 -5.74254 -0.121775 0.00058076 4.84492 0.0342923 -0.535068 0.895511 0.0793771 2.03217e-16 0.0 3.88251e-19 0.335614 -1.92038 0.0114977 0.00941177 -2.07853 0.0778171 0.520691 3.99667 -0.141561
10.7889 84.1723 2.03297 150.514 86.6558 161.349 1.17606 -4.01997 -0.71644 0.297252 0.362727 -0.128119 0.563146 -0.318204 -0.071348 -0.0846851 -0.194314 -0.219933 -0.0 0.0 0.0 -0.0 0.0 0.0 3.96725e-15 1.25738e-13 -1.36548e-15 22.4232 5.75994 0.00440532 -6.11957 -3.30382 8.92157 3.44541 -43.228 -1.12558 5.82874e-11 1.06836e-12 -9.78078e-12 9.87303e-11 1.8365e-12 -1.41443e-11 5.829e-11 1.06775e-12 -9.79054e-12 7.73091 5.47488 0.417314 5.82869e-11 1.06862e-12 -9.77645e-12 2.90554 0.965183 0.102902 5.82937e-11 1.06821e-12 -9.77919e-12 10.2786 0.731801 0.0259123 5.82805e-11 1.07136e-12 -9.77203e-12 2.22167 -0.733487 -0.20892 3.81988e-15 1.25517e-13 -1.72772e-15 -20.9497 5.77372 0.648727 6.41716 -3.54548 -9.24487 -3.98893 -46.8028 0.493782 1.88895e-11 2.04362e-11 3.25027e-11 3.64472e-11 3.69524e-11 5.16587e-11 1.88864e-11 2.04373e-11 3.25112e-11 -7.73091 5.47488 -0.417314 1.88905e-11 2.0437e-11 3.25049e-11 -2.90554 0.965183 -0.102902 1.88898e-11 2.04366e-11 3.25016e-11 -10.2786 0.731801 -0.0259123 1.88934e-11 2.04371e-11 3.24919e-11 -2.22167 -0.733487 0.20892 -2.03217e-16 0.0 -3.88251e-19 -0.381901 -7.24504 -1.47439 0.00195726 5.96712 0.060481 -0.453115 -1.65462 0.068097 2.03217e-16 0.0 3.88251e-19 1.44823 -5.46222 3.01053 0.0132848 2.55457 -0.0156765 0.439967 0.174156 -0.450535
10.786 84.1722 2.02751 149.97 86.6524 160.817 1.11197 -8.26394 -1.51795 0.284822 0.751332 -0.320427 1.15718 -0.65466 -0.146985 -0.175389 -0.403461 -0.452902 -0.0 0.0 0.0 -0.0 0.0 0.0 1.32704e-15 3.24768e-13 -3.97259e-15 46.1257 11.8501 0.00952305 -11.4825 -6.52867 18.4454 -49.1433 -88.007 -57.8327 5.69888e-11 2.7058e-12 -2.03057e-11 9.47627e-11 4.65931e-12 -3.04568e-11 5.699e-11 2.70561e-12 -2.03158e-11 7.73091 5.47488 0.417314 5.69885e-11 2.70669e-12 -2.03037e-11 2.90554 0.965183 0.102902 5.69953e-11 2.70593e-12 -2.03042e-11 10.2786 0.731801 0.0259123 5.69811e-11 2.70794e-12 -2.02945e-11 2.22167 -0.733487 -0.20892 1.23269e-15 3.24175e-13 -4.29251e-15 -43.2415 11.878 1.35664 11.9713 -6.98479 -19.1278 164.757 -83.6822 173.665 -2.27639e-11 5.12436e-11 6.72741e-11 -3.14673e-11 9.18622e-11 1.07335e-10 -2.27679e-11 5.12467e-11 6.72813e-11 -7.73091 5.47488 -0.417314 -2.2763e-11 5.12455e-11 6.72751e-11 -2.90554 0.965183 -0.102902 -2.27622e-11 5.12447e-11 6.72716e-11 -10.2786 0.731801 -0.0259123 -2.27609e-11 5.12449e-11 6.72616e-11 -2.22167 -0.733487 0.20892 -2.03217e-16 0.0 -3.88251e-19 -2.32304 -8.82656 -2.91526 0.00231287 7.1533 0.0883024 -0.367641 -4.35009 0.0555424 2.03217e-16 0.0 3.88251e-19 3.03264 -9.16763 6.23384 0.0339258 7.45187 -0.115398 0.309649 -3.8655 -0.780055
10.7828 84.1733 2.04067 151.042 86.6709 161.906 0.949335 -12.0439 -2.25576 0.276211 1.09413 -0.492277 1.68706 -0.954607 -0.21407 -0.258531 -0.582907 -0.659828 -0.0 0.0 0.0 -0.0 0.0 0.0 -5.20032e-16 3.77216e-13 -4.89158e-15 67.267 17.2798 0.0137708 -15.3657 -8.95189 27.0761 -164.391 -50.236 -176.152 5.98366e-11 3.22624e-12 -3.3776e-11 9.75629e-11 5.54766e-12 -5.00868e-11 5.98366e-11 3.22632e-12 -3.37862e-11 7.73091 5.47488 0.417314 5.98365e-11 3.22754e-12 -3.37758e-11 2.90554 0.965183 0.102902 5.98432e-11 3.22651e-12 -3.37745e-11 10.2786 0.731801 0.0259123 5.98282e-11 3.2276e-12 -3.37625e-11 2.22167 -0.733487 -0.20892 -5.69883e-16 3.7655e-13 -5.18315e-15 -63.257 17.3121 2.02822 15.9288 -9.53043 -28.1025 166.115 -39.581 178.684 -5.83601e-11 6.12983e-11 9.30744e-11 -8.93436e-11 1.10838e-10 1.47309e-10 -5.83649e-11 6.13032e-11 9.30807e-11 -7.73091 5.47488 -0.417314 -5.83593e-11 6.13012e-11 9.30746e-11 -2.90554 0.965183 -0.102902 -5.83574e-11 6.13001e-11 9.3071e-11 -10.2786 0.731801 -0.0259123 -5.8358e-11 6.13002e-11 9.30609e-11 -2.22167 -0.733487 0.20892 -2.03217e-16 0.0 -3.88251e-19 -4.12443 -10.23 -4.21262 0.00160025 8.21152 0.113282 -0.292202 -6.75489 0.0457887 2.03217e-16 0.0 3.88251e-19 4.80409 -12.4123 9.18401 0.0669634 11.8207 -0.206902 0.153947 -7.46958 -1.07832
10.7803 84.1711 2.03873 150.923 86.6717 161.797 0.767991 -14.6714 -2.79204 0.272175 1.32243 -0.612904 2.05823 -1.16329 -0.259754 -0.319457 -0.688138 -0.801614 -0.0 0.0 0.0 -0.0 0.0 0.0 -3.84252e-16 6.32127e-14 -1.59028e-15 82.0076 21.0582 0.0152254 -17.6217 -10.2857 33.177 -163.375 -21.8649 -176.767 7.30503e-11 9.54166e-13 -5.46101e-11 1.17282e-10 1.59982e-12 -7.80103e-11 7.30498e-11 9.54166e-13 -5.46197e-11 7.73091 5.47488 0.417314 7.30505e-11 9.55359e-13 -5.46101e-11 2.90554 0.965183 0.102902 7.30567e-11 9.54266e-13 -5.46077e-11 10.2786 0.731801 0.0259123 7.30418e-11 9.54962e-13 -5.45942e-11 2.22167 -0.733487 -0.20892 -4.10938e-16 6.32174e-14 -1.88845e-15 -77.2878 21.079 2.53091 18.1935 -10.8962 -34.4558 163.904 -8.81369 178.751 -7.88134e-11 1.94714e-11 9.64471e-11 -1.22125e-10 3.99796e-11 1.48027e-10 -7.88185e-11 1.94777e-11 9.64535e-11 -7.73091 5.47488 -0.417314 -7.88127e-11 1.94753e-11 9.64471e-11 -2.90554 0.965183 -0.102902 -7.88109e-11 1.94739e-11 9.6444e-11 -10.2786 0.731801 -0.0259123 -7.88118e-11 1.94737e-11 9.64344e-11 -2.22167 -0.733487 0.20892 -2.03217e-16 0.0 -3.88251e-19 -5.42362 -11.2049 -5.12516 0.000417165 8.94988 0.130826 -0.239428 -8.43305 0.0429605 2.03217e-16 0.0 3.88251e-19 6.23899 -14.6287 11.2934 0.0983859 14.8685 -0.273069 0.0234286 -9.98595 -1.2874
10.782 84.1726 2.02967 150.218 86.6562 161.082 0.664574 -15.6926 -3.01664 0.272287 1.38736 -0.661852 2.20715 -1.242 -0.275814 -0.345816 -0.690092 -0.852411 -0.0 0.0 0.0 -0.0 0.0 0.0 3.4533e-15 -9.8605e-13 1.01667e-14 87.792 22.5263 0.00979595 -18.4172 -10.7157 35.5873 -162.885 -10.7849 -176.728 1.04282e-10 -5.69779e-12 -8.65971e-11 1.66006e-10 -9.94992e-12 -1.17792e-10 1.04282e-10 -5.69833e-12 -8.66046e-11 7.73091 5.47488 0.417314 1.04283e-10 -5.69744e-12 -8.65946e-11 2.90554 0.965183 0.102902 1.04288e-10 -5.69824e-12 -8.65924e-11 10.2786 0.731801 0.0259123 1.04275e-10 -5.69709e-12 -8.65782e-11 2.22167 -0.733487 -0.20892 3.41782e-15 -9.83884e-13 9.79674e-15 -82.7953 22.5186 2.7405 18.985 -11.3249 -36.9668 163.051 3.25424 178.682 -7.7837e-11 -1.09583e-10 6.09035e-11 -1.18988e-10 -1.81866e-10 8.07244e-11 -7.78421e-11 -1.09575e-10 6.09116e-11 -7.73091 5.47488 -0.417314 -7.78364e-11 -1.09578e-10 6.09047e-11 -2.90554 0.965183 -0.102902 -7.78368e-11 -1.09579e-10 6.09026e-11 -10.2786 0.731801 -0.0259123 -7.78355e-11 -1.0958e-10 6.08945e-11 -2.22167 -0.733487 0.20892 -2.03217e-16 0.0 -3.88251e-19 -5.95154 -11.5826 -5.48443 -0.00045507 9.22823 0.137626 -0.2174 -9.0882 0.0491864 2.03217e-16 0.0 3.88251e-19 6.83551 -15.4914 12.1191 0.112336 16.0676 -0.300102 -0.0310338 -10.9811 -1.36066
10.7767 84.1724 2.0303 150.035 86.6696 160.919 0.642819 -15.5679 -3.00936 0.274882 1.33574 -0.659583 2.19754 -1.22798 -0.270693 -0.347347 -0.618253 -0.838201 -0.0 0.0 0.0 -0.0 0.0 0.0 9.89088e-15 -2.54992e-12 2.78423e-14 87.1788 22.3442 -0.000478279 -18.3366 -10.6765 35.332 -162.937 -12.0518 -176.733 1.48218e-10 -1.54558e-11 -1.2651e-10 2.35193e-10 -2.689e-11 -1.66033e-10 1.48219e-10 -1.54572e-11 -1.26515e-10 7.73091 5.47488 0.417314 1.48219e-10 -1.54569e-11 -1.26503e-10 2.90554 0.965183 0.102902 1.48222e-10 -1.54571e-11 -1.26502e-10 10.2786 0.731801 0.0259123 1.48212e-10 -1.54549e-11 -1.26488e-10 2.22167 -0.733487 -0.20892 9.82388e-15 -2.54455e-12 2.73546e-14 -82.1784 22.2978 2.72274 18.9054 -11.2869 -36.7016 163.144 1.96692 178.7 -6.15648e-11 -3.00247e-10 -2.07949e-12 -9.0234e-11 -5.1036e-10 -3.45422e-11 -6.15694e-11 -3.00239e-10 -2.06856e-12 -7.73091 5.47488 -0.417314 -6.15643e-11 -3.0024e-10 -2.0761e-12 -2.90554 0.965183 -0.102902 -6.1568e-11 -3.00242e-10 -2.0768e-12 -10.2786 0.731801 -0.0259123 -6.15629e-11 -3.00243e-10 -2.08267e-12 -2.22167 -0.733487 0.20892 -2.03217e-16 0.0 -3.88251e-19 -5.91246 -11.5367 -5.44477 -0.000873939 9.17859 0.136713 -0.217275 -9.01289 0.0619005 2.03217e-16 0.0 3.88251e-19 6.74665 -15.4117 11.9991 0.110098 15.9461 -0.297875 -0.0217592 -10.8899 -1.33422
